<mxfile host="app.diagrams.net" agent="Mozilla/5.0 (X11; Linux x86_64; rv:134.0) Gecko/20100101 Firefox/134.0" version="26.0.7">
  <diagram name="Page-1" id="2O54he_iV0tcfqrj9Db2">
    <mxGraphModel dx="1590" dy="922" grid="1" gridSize="10" guides="1" tooltips="1" connect="1" arrows="1" fold="1" page="1" pageScale="1" pageWidth="850" pageHeight="1100" math="0" shadow="0">
      <root>
        <mxCell id="0" />
        <mxCell id="1" parent="0" />
        <mxCell id="TpiMZ8z6lbcMxNbBs4mE-25" value="User" style="swimlane;" parent="1" vertex="1">
          <mxGeometry x="190" y="40" width="390" height="590" as="geometry" />
        </mxCell>
        <mxCell id="TpiMZ8z6lbcMxNbBs4mE-26" value="" style="ellipse;html=1;shape=startState;fillColor=#000000;strokeColor=#ff0000;" parent="TpiMZ8z6lbcMxNbBs4mE-25" vertex="1">
          <mxGeometry x="164.75" y="30" width="30" height="30" as="geometry" />
        </mxCell>
        <mxCell id="TpiMZ8z6lbcMxNbBs4mE-27" value="" style="edgeStyle=orthogonalEdgeStyle;html=1;verticalAlign=bottom;endArrow=open;endSize=8;strokeColor=#ff0000;rounded=0;entryX=0.5;entryY=0;entryDx=0;entryDy=0;" parent="TpiMZ8z6lbcMxNbBs4mE-25" source="TpiMZ8z6lbcMxNbBs4mE-26" target="TpiMZ8z6lbcMxNbBs4mE-28" edge="1">
          <mxGeometry relative="1" as="geometry">
            <mxPoint x="179.75" y="130" as="targetPoint" />
          </mxGeometry>
        </mxCell>
        <mxCell id="TpiMZ8z6lbcMxNbBs4mE-28" value="Create a Group Share" style="rounded=1;whiteSpace=wrap;html=1;arcSize=50;fontColor=#000000;fillColor=#ffffc0;strokeColor=#ff0000;" parent="TpiMZ8z6lbcMxNbBs4mE-25" vertex="1">
          <mxGeometry x="119.75" y="70" width="120" height="40" as="geometry" />
        </mxCell>
        <mxCell id="TpiMZ8z6lbcMxNbBs4mE-29" value="" style="edgeStyle=orthogonalEdgeStyle;html=1;verticalAlign=bottom;endArrow=open;endSize=8;strokeColor=#ff0000;rounded=0;entryX=0.5;entryY=0;entryDx=0;entryDy=0;" parent="TpiMZ8z6lbcMxNbBs4mE-25" source="TpiMZ8z6lbcMxNbBs4mE-28" target="TpiMZ8z6lbcMxNbBs4mE-30" edge="1">
          <mxGeometry relative="1" as="geometry">
            <mxPoint x="179.75" y="260" as="targetPoint" />
            <Array as="points" />
          </mxGeometry>
        </mxCell>
        <mxCell id="TpiMZ8z6lbcMxNbBs4mE-30" value="Specify Password&amp;nbsp; to restrict access to this photo Group" style="rounded=1;whiteSpace=wrap;html=1;arcSize=40;fontColor=#000000;fillColor=#ffffc0;strokeColor=#ff0000;" parent="TpiMZ8z6lbcMxNbBs4mE-25" vertex="1">
          <mxGeometry x="120" y="120" width="120" height="60" as="geometry" />
        </mxCell>
        <mxCell id="TpiMZ8z6lbcMxNbBs4mE-31" value="" style="edgeStyle=orthogonalEdgeStyle;html=1;verticalAlign=bottom;endArrow=open;endSize=8;strokeColor=#ff0000;rounded=0;entryX=0.5;entryY=0;entryDx=0;entryDy=0;" parent="TpiMZ8z6lbcMxNbBs4mE-25" source="TpiMZ8z6lbcMxNbBs4mE-30" target="TpiMZ8z6lbcMxNbBs4mE-34" edge="1">
          <mxGeometry relative="1" as="geometry">
            <mxPoint x="180" y="260" as="targetPoint" />
            <Array as="points" />
          </mxGeometry>
        </mxCell>
        <mxCell id="DbU4vVNVeQuLeiw8wJ58-33" style="edgeStyle=orthogonalEdgeStyle;html=1;verticalAlign=bottom;endArrow=open;endSize=8;strokeColor=#ff0000;rounded=0;entryX=0;entryY=0.5;entryDx=0;entryDy=0;exitX=1;exitY=0.5;exitDx=0;exitDy=0;" edge="1" parent="TpiMZ8z6lbcMxNbBs4mE-25" source="TpiMZ8z6lbcMxNbBs4mE-34" target="DbU4vVNVeQuLeiw8wJ58-32">
          <mxGeometry relative="1" as="geometry" />
        </mxCell>
        <mxCell id="TpiMZ8z6lbcMxNbBs4mE-34" value="Generate Public and private key associated with Group" style="rounded=1;whiteSpace=wrap;html=1;arcSize=40;fontColor=#000000;fillColor=#ffffc0;strokeColor=#ff0000;" parent="TpiMZ8z6lbcMxNbBs4mE-25" vertex="1">
          <mxGeometry x="115" y="200" width="130" height="50" as="geometry" />
        </mxCell>
        <mxCell id="DbU4vVNVeQuLeiw8wJ58-39" style="edgeStyle=orthogonalEdgeStyle;html=1;verticalAlign=bottom;endArrow=open;endSize=8;strokeColor=#ff0000;rounded=0;entryX=0;entryY=0.5;entryDx=0;entryDy=0;exitX=1;exitY=0.5;exitDx=0;exitDy=0;" edge="1" parent="TpiMZ8z6lbcMxNbBs4mE-25" source="DbU4vVNVeQuLeiw8wJ58-32" target="DbU4vVNVeQuLeiw8wJ58-35">
          <mxGeometry relative="1" as="geometry" />
        </mxCell>
        <mxCell id="DbU4vVNVeQuLeiw8wJ58-32" value="Add Files to Group share" style="rounded=1;whiteSpace=wrap;html=1;arcSize=40;fontColor=#000000;fillColor=#ffffc0;strokeColor=#ff0000;" vertex="1" parent="TpiMZ8z6lbcMxNbBs4mE-25">
          <mxGeometry x="120" y="260" width="120" height="40" as="geometry" />
        </mxCell>
        <mxCell id="DbU4vVNVeQuLeiw8wJ58-34" value="Add Headers and Sign the message using Private Key" style="rounded=1;whiteSpace=wrap;html=1;arcSize=40;fontColor=#000000;fillColor=#ffffc0;strokeColor=#ff0000;" vertex="1" parent="TpiMZ8z6lbcMxNbBs4mE-25">
          <mxGeometry x="120.25" y="380" width="120" height="50" as="geometry" />
        </mxCell>
        <mxCell id="DbU4vVNVeQuLeiw8wJ58-35" value="Encrypt Files Using Public Key" style="rounded=1;whiteSpace=wrap;html=1;arcSize=40;fontColor=#000000;fillColor=#ffffc0;strokeColor=#ff0000;" vertex="1" parent="TpiMZ8z6lbcMxNbBs4mE-25">
          <mxGeometry x="120" y="320" width="120" height="40" as="geometry" />
        </mxCell>
        <mxCell id="DbU4vVNVeQuLeiw8wJ58-36" value="" style="edgeStyle=orthogonalEdgeStyle;html=1;verticalAlign=bottom;endArrow=open;endSize=8;strokeColor=#ff0000;rounded=0;entryX=0.5;entryY=0;entryDx=0;entryDy=0;" edge="1" parent="TpiMZ8z6lbcMxNbBs4mE-25" source="DbU4vVNVeQuLeiw8wJ58-35" target="DbU4vVNVeQuLeiw8wJ58-34">
          <mxGeometry relative="1" as="geometry">
            <mxPoint x="-19.75" y="420" as="targetPoint" />
          </mxGeometry>
        </mxCell>
        <mxCell id="DbU4vVNVeQuLeiw8wJ58-37" value="Send" style="rounded=1;whiteSpace=wrap;html=1;arcSize=40;fontColor=#000000;fillColor=#ffffc0;strokeColor=#ff0000;" vertex="1" parent="TpiMZ8z6lbcMxNbBs4mE-25">
          <mxGeometry x="120.25" y="450" width="120" height="40" as="geometry" />
        </mxCell>
        <mxCell id="DbU4vVNVeQuLeiw8wJ58-38" value="" style="edgeStyle=orthogonalEdgeStyle;html=1;verticalAlign=bottom;endArrow=open;endSize=8;strokeColor=#ff0000;rounded=0;exitX=0.5;exitY=1;exitDx=0;exitDy=0;entryX=0.5;entryY=0;entryDx=0;entryDy=0;" edge="1" parent="TpiMZ8z6lbcMxNbBs4mE-25" source="DbU4vVNVeQuLeiw8wJ58-34" target="DbU4vVNVeQuLeiw8wJ58-37">
          <mxGeometry relative="1" as="geometry">
            <mxPoint x="180.25" y="630" as="targetPoint" />
            <mxPoint x="240.25" y="500" as="sourcePoint" />
          </mxGeometry>
        </mxCell>
        <mxCell id="DbU4vVNVeQuLeiw8wJ58-47" value="" style="ellipse;html=1;shape=endState;fillColor=#000000;strokeColor=#ff0000;" vertex="1" parent="TpiMZ8z6lbcMxNbBs4mE-25">
          <mxGeometry x="170" y="530" width="30" height="30" as="geometry" />
        </mxCell>
        <mxCell id="TpiMZ8z6lbcMxNbBs4mE-38" value="server" style="swimlane;" parent="1" vertex="1">
          <mxGeometry x="580" y="40" width="350" height="590" as="geometry" />
        </mxCell>
        <mxCell id="DbU4vVNVeQuLeiw8wJ58-40" value="Validate the Signature" style="rounded=1;whiteSpace=wrap;html=1;arcSize=40;fontColor=#000000;fillColor=#ffffc0;strokeColor=#ff0000;" vertex="1" parent="TpiMZ8z6lbcMxNbBs4mE-38">
          <mxGeometry x="115" y="95" width="120" height="40" as="geometry" />
        </mxCell>
        <mxCell id="DbU4vVNVeQuLeiw8wJ58-41" value="" style="edgeStyle=orthogonalEdgeStyle;html=1;verticalAlign=bottom;endArrow=open;endSize=8;strokeColor=#ff0000;rounded=0;entryX=0.5;entryY=0;entryDx=0;entryDy=0;" edge="1" parent="TpiMZ8z6lbcMxNbBs4mE-38" source="DbU4vVNVeQuLeiw8wJ58-40" target="DbU4vVNVeQuLeiw8wJ58-44">
          <mxGeometry relative="1" as="geometry">
            <mxPoint x="175" y="215" as="targetPoint" />
          </mxGeometry>
        </mxCell>
        <mxCell id="DbU4vVNVeQuLeiw8wJ58-42" value="Find Peers to store the files" style="rounded=1;whiteSpace=wrap;html=1;arcSize=40;fontColor=#000000;fillColor=#ffffc0;strokeColor=#ff0000;" vertex="1" parent="TpiMZ8z6lbcMxNbBs4mE-38">
          <mxGeometry x="114" y="360" width="120" height="40" as="geometry" />
        </mxCell>
        <mxCell id="DbU4vVNVeQuLeiw8wJ58-43" value="Add Record of file in DataBase" style="rounded=1;whiteSpace=wrap;html=1;arcSize=40;fontColor=#000000;fillColor=#ffffc0;strokeColor=#ff0000;" vertex="1" parent="TpiMZ8z6lbcMxNbBs4mE-38">
          <mxGeometry x="115" y="525" width="120" height="40" as="geometry" />
        </mxCell>
        <mxCell id="DbU4vVNVeQuLeiw8wJ58-44" value="" style="rhombus;whiteSpace=wrap;html=1;fontColor=#000000;fillColor=#ffffc0;strokeColor=#ff0000;" vertex="1" parent="TpiMZ8z6lbcMxNbBs4mE-38">
          <mxGeometry x="134" y="225" width="80" height="40" as="geometry" />
        </mxCell>
        <mxCell id="DbU4vVNVeQuLeiw8wJ58-45" value="&lt;div&gt;valid&lt;/div&gt;" style="edgeStyle=orthogonalEdgeStyle;html=1;align=left;verticalAlign=top;endArrow=open;endSize=8;strokeColor=#ff0000;rounded=0;entryX=0.5;entryY=0;entryDx=0;entryDy=0;" edge="1" parent="TpiMZ8z6lbcMxNbBs4mE-38" source="DbU4vVNVeQuLeiw8wJ58-44" target="DbU4vVNVeQuLeiw8wJ58-42">
          <mxGeometry x="-1" relative="1" as="geometry">
            <mxPoint x="174" y="325" as="targetPoint" />
          </mxGeometry>
        </mxCell>
        <mxCell id="TpiMZ8z6lbcMxNbBs4mE-45" value="Peers" style="swimlane;" parent="1" vertex="1">
          <mxGeometry x="930" y="40" width="350" height="590" as="geometry" />
        </mxCell>
        <mxCell id="TpiMZ8z6lbcMxNbBs4mE-46" value="Store?" style="rhombus;whiteSpace=wrap;html=1;fontColor=#000000;fillColor=#ffffc0;strokeColor=#ff0000;" parent="TpiMZ8z6lbcMxNbBs4mE-45" vertex="1">
          <mxGeometry x="135" y="360" width="80" height="40" as="geometry" />
        </mxCell>
        <mxCell id="TpiMZ8z6lbcMxNbBs4mE-47" value="no" style="edgeStyle=orthogonalEdgeStyle;html=1;align=left;verticalAlign=bottom;endArrow=open;endSize=8;strokeColor=#ff0000;rounded=0;entryX=0.5;entryY=1;entryDx=0;entryDy=0;" parent="TpiMZ8z6lbcMxNbBs4mE-45" source="TpiMZ8z6lbcMxNbBs4mE-46" target="TpiMZ8z6lbcMxNbBs4mE-50" edge="1">
          <mxGeometry x="-1" relative="1" as="geometry">
            <mxPoint x="270" y="310" as="targetPoint" />
          </mxGeometry>
        </mxCell>
        <mxCell id="TpiMZ8z6lbcMxNbBs4mE-48" value="yes" style="edgeStyle=orthogonalEdgeStyle;html=1;align=left;verticalAlign=top;endArrow=open;endSize=8;strokeColor=#ff0000;rounded=0;entryX=0.5;entryY=0;entryDx=0;entryDy=0;" parent="TpiMZ8z6lbcMxNbBs4mE-45" source="TpiMZ8z6lbcMxNbBs4mE-46" edge="1" target="TpiMZ8z6lbcMxNbBs4mE-49">
          <mxGeometry x="-1" relative="1" as="geometry">
            <mxPoint x="175" y="470" as="targetPoint" />
          </mxGeometry>
        </mxCell>
        <mxCell id="TpiMZ8z6lbcMxNbBs4mE-49" value="Notify Server" style="rounded=1;whiteSpace=wrap;html=1;arcSize=40;fontColor=#000000;fillColor=#ffffc0;strokeColor=#ff0000;" parent="TpiMZ8z6lbcMxNbBs4mE-45" vertex="1">
          <mxGeometry x="115" y="510" width="120" height="40" as="geometry" />
        </mxCell>
        <mxCell id="TpiMZ8z6lbcMxNbBs4mE-50" value="Ignore the Message" style="rounded=1;whiteSpace=wrap;html=1;arcSize=40;fontColor=#000000;fillColor=#ffffc0;strokeColor=#ff0000;" parent="TpiMZ8z6lbcMxNbBs4mE-45" vertex="1">
          <mxGeometry x="210" y="250" width="120" height="40" as="geometry" />
        </mxCell>
        <mxCell id="TpiMZ8z6lbcMxNbBs4mE-51" value="" style="edgeStyle=orthogonalEdgeStyle;html=1;verticalAlign=bottom;endArrow=open;endSize=8;strokeColor=#ff0000;rounded=0;entryX=0;entryY=0.5;entryDx=0;entryDy=0;exitX=1;exitY=0.5;exitDx=0;exitDy=0;" parent="1" source="DbU4vVNVeQuLeiw8wJ58-42" target="TpiMZ8z6lbcMxNbBs4mE-46" edge="1">
          <mxGeometry relative="1" as="geometry">
            <mxPoint x="1030" y="440" as="targetPoint" />
            <mxPoint x="820" y="400" as="sourcePoint" />
          </mxGeometry>
        </mxCell>
        <mxCell id="TpiMZ8z6lbcMxNbBs4mE-52" value="" style="edgeStyle=orthogonalEdgeStyle;html=1;verticalAlign=bottom;endArrow=open;endSize=8;strokeColor=#ff0000;rounded=0;entryX=1;entryY=0.5;entryDx=0;entryDy=0;" parent="1" source="TpiMZ8z6lbcMxNbBs4mE-49" target="DbU4vVNVeQuLeiw8wJ58-43" edge="1">
          <mxGeometry relative="1" as="geometry">
            <mxPoint x="860" y="550" as="targetPoint" />
          </mxGeometry>
        </mxCell>
        <mxCell id="DbU4vVNVeQuLeiw8wJ58-46" style="edgeStyle=orthogonalEdgeStyle;html=1;verticalAlign=bottom;endArrow=open;endSize=8;strokeColor=#ff0000;rounded=0;entryX=0;entryY=0.5;entryDx=0;entryDy=0;exitX=1;exitY=0.5;exitDx=0;exitDy=0;" edge="1" parent="1" source="DbU4vVNVeQuLeiw8wJ58-37" target="DbU4vVNVeQuLeiw8wJ58-40">
          <mxGeometry relative="1" as="geometry">
            <Array as="points">
              <mxPoint x="630" y="510" />
              <mxPoint x="630" y="155" />
            </Array>
          </mxGeometry>
        </mxCell>
        <mxCell id="DbU4vVNVeQuLeiw8wJ58-48" style="edgeStyle=orthogonalEdgeStyle;rounded=0;orthogonalLoop=1;jettySize=auto;html=1;entryX=1;entryY=0.5;entryDx=0;entryDy=0;" edge="1" parent="1" source="DbU4vVNVeQuLeiw8wJ58-43" target="DbU4vVNVeQuLeiw8wJ58-47">
          <mxGeometry relative="1" as="geometry" />
        </mxCell>
        <mxCell id="DbU4vVNVeQuLeiw8wJ58-49" value="invalid" style="edgeStyle=orthogonalEdgeStyle;html=1;verticalAlign=bottom;endArrow=open;endSize=8;strokeColor=#ff0000;rounded=0;entryX=0;entryY=0.5;entryDx=0;entryDy=0;exitX=0;exitY=0.5;exitDx=0;exitDy=0;" edge="1" parent="1" source="DbU4vVNVeQuLeiw8wJ58-44" target="DbU4vVNVeQuLeiw8wJ58-47">
          <mxGeometry relative="1" as="geometry">
            <mxPoint x="690" y="300" as="sourcePoint" />
            <Array as="points">
              <mxPoint x="670" y="285" />
              <mxPoint x="670" y="550" />
              <mxPoint x="380" y="550" />
              <mxPoint x="380" y="570" />
              <mxPoint x="360" y="570" />
            </Array>
          </mxGeometry>
        </mxCell>
      </root>
    </mxGraphModel>
  </diagram>
</mxfile>
